<svg xmlns="http://www.w3.org/2000/svg" viewBox="0 0 512 512">
  <defs>
    <linearGradient id="m" x1="0%" y1="0%" x2="100%" y2="100%">
      <stop offset="0%" style="stop-color:#4A90E2"/>
      <stop offset="50%" style="stop-color:#00FF41"/>
      <stop offset="100%" style="stop-color:#7B68EE"/>
    </linearGradient>
    <linearGradient id="p" x1="0%" y1="0%" x2="100%" y2="0%">
      <stop offset="0%" style="stop-color:#f29f05;stop-opacity:.95"/>
      <stop offset="50%" style="stop-color:#0a2540;stop-opacity:.95"/>
      <stop offset="100%" style="stop-color:#f29f05;stop-opacity:.95"/>
    </linearGradient>
    <linearGradient id="s" x1="0%" y1="0%" x2="0%" y2="100%">
      <stop offset="0%" style="stop-color:#0a2540"/>
      <stop offset="100%" style="stop-color:#008060"/>
    </linearGradient>
  </defs>
  <rect width="512" height="512" rx="110" fill="#ffffff"/>
  <path d="M256 70L390 135V265Q390 370 256 460 122 370 122 265V135Z" fill="url(#s)" opacity=".08"/>
  <path d="M256 70L390 135V265Q390 370 256 460 122 370 122 265V135Z" stroke="url(#s)" stroke-width="8" fill="none"/>
  <rect x="231" y="155" width="50" height="190" rx="8" fill="url(#m)" opacity=".9"/>
  <rect x="186" y="220" width="140" height="50" rx="8" fill="url(#m)" opacity=".9"/>
  <rect x="195" y="200" width="122" height="32" rx="5" fill="url(#p)" opacity=".92"/>
  <rect x="195" y="245" width="122" height="32" rx="5" fill="url(#p)" opacity=".92"/>
  <rect x="195" y="290" width="122" height="32" rx="5" fill="url(#p)" opacity=".92"/>
  <g transform="translate(256,110)">
    <ellipse rx="60" ry="38" fill="#0a2540" opacity=".95"/>
    <circle cx="-24" cy="2" r="16" fill="#008060"/>
    <circle cx="-24" cy="2" r="10" fill="#0a2540"/>
    <circle cx="24" cy="2" r="16" fill="#008060"/>
    <circle cx="24" cy="2" r="10" fill="#0a2540"/>
    <path d="M-8-5Q0-8 8-5" stroke="#008060" stroke-width="4" fill="none" stroke-linecap="round"/>
    <rect x="-55" y="-8" width="35" height="5" rx="2.5" fill="#0a2540" opacity=".9"/>
    <rect x="20" y="-8" width="35" height="5" rx="2.5" fill="#0a2540" opacity=".9"/>
  </g>
  <g transform="translate(256,380)">
    <rect x="-70" y="-30" width="140" height="60" rx="30" fill="#008060"/>
    <rect x="-70" y="-30" width="140" height="60" rx="30" stroke="#0a2540" stroke-width="3" fill="none"/>
    <text x="0" y="-5" font-family="Inter,sans-serif" font-size="32" font-weight="900" text-anchor="middle" fill="#fff">ZK</text>
    <text x="0" y="18" font-family="Inter,sans-serif" font-size="14" font-weight="700" text-anchor="middle" fill="#fff" opacity=".9">PROOF</text>
    <circle cx="50" cy="-5" r="18" fill="#f29f05"/>
    <path d="M44-5L48 0 57-10" stroke="#fff" stroke-width="4" stroke-linecap="round" stroke-linejoin="round" fill="none"/>
  </g>
</svg>
