<svg width="24" height="25" viewBox="0 0 24 25" fill="none" xmlns="http://www.w3.org/2000/svg">
  <path d="M11.96 12.4649V16.0149C11.9588 16.1418 11.9913 16.2668 12.054 16.3772C12.1167 16.4875 12.2075 16.5793 12.3172 16.6433C12.4268 16.7073 12.5514 16.7411 12.6784 16.7414C12.8053 16.7416 12.9301 16.7084 13.04 16.6449L15.65 15.1649C15.9552 14.9887 16.2084 14.735 16.384 14.4294C16.5596 14.1238 16.6514 13.7773 16.65 13.4249V10.8749C16.6494 10.6073 16.5812 10.3442 16.4519 10.11C16.3225 9.87574 16.1361 9.67794 15.91 9.53489L12.85 7.59489C12.5807 7.42738 12.2678 7.34365 11.9509 7.35433C11.6339 7.36501 11.3273 7.46963 11.07 7.65489L8.06999 9.83489C7.86807 9.98388 7.70404 10.1783 7.59112 10.4024C7.47821 10.6265 7.41959 10.874 7.41999 11.1249V18.5449C7.41878 18.7875 7.47312 19.0272 7.57886 19.2456C7.68459 19.464 7.83891 19.6553 8.02999 19.8049L10.14 21.4649C10.6753 21.8807 11.3241 22.1243 12.0008 22.1636C12.6775 22.2029 13.3502 22.0359 13.93 21.6849L19.45 18.3149C19.9434 18.0197 20.3526 17.6024 20.6381 17.1033C20.9235 16.6041 21.0757 16.0399 21.08 15.4649V9.35489C21.0789 8.79118 20.9365 8.23674 20.6657 7.74233C20.3949 7.24791 20.0044 6.82933 19.53 6.52489L13.78 2.84489C13.2384 2.49729 12.6085 2.3125 11.965 2.3125C11.3215 2.3125 10.6915 2.49729 10.15 2.84489L4.45999 6.51489C3.98819 6.81891 3.60006 7.23628 3.33105 7.72888C3.06205 8.22148 2.92072 8.77362 2.91999 9.33489V17.5949" stroke="#3B3B3B" stroke-width="2" stroke-linecap="round" stroke-linejoin="round"/>
</svg>
